<mxfile host="app.diagrams.net" modified="2023-12-18T12:48:36.955Z" agent="Mozilla/5.0 (Windows NT 10.0; Win64; x64) AppleWebKit/537.36 (KHTML, like Gecko) Chrome/120.0.0.0 Safari/537.36 Edg/120.0.0.0" etag="TH1bZ-3vTISOb4xWNkB8" version="22.1.11" type="github">
  <diagram name="Page-1" id="b5b7bab2-c9e2-2cf4-8b2a-24fd1a2a6d21">
    <mxGraphModel dx="1386" dy="785" grid="1" gridSize="10" guides="1" tooltips="1" connect="1" arrows="1" fold="1" page="1" pageScale="1" pageWidth="827" pageHeight="1169" background="none" math="0" shadow="0">
      <root>
        <mxCell id="0" />
        <mxCell id="1" parent="0" />
        <mxCell id="SHPZ-tNXyQGEDy9vbJjf-5" value="LOJA" style="swimlane;fontStyle=1;align=center;verticalAlign=top;childLayout=stackLayout;horizontal=1;startSize=26;horizontalStack=0;resizeParent=1;resizeParentMax=0;resizeLast=0;collapsible=1;marginBottom=0;whiteSpace=wrap;html=1;" vertex="1" parent="1">
          <mxGeometry x="80" y="70" width="160" height="220" as="geometry" />
        </mxCell>
        <mxCell id="SHPZ-tNXyQGEDy9vbJjf-6" value="+ nome : String&lt;br&gt;+ tipo :&amp;nbsp; &amp;nbsp; String&lt;br&gt;" style="text;strokeColor=none;fillColor=none;align=left;verticalAlign=top;spacingLeft=4;spacingRight=4;overflow=hidden;rotatable=0;points=[[0,0.5],[1,0.5]];portConstraint=eastwest;whiteSpace=wrap;html=1;" vertex="1" parent="SHPZ-tNXyQGEDy9vbJjf-5">
          <mxGeometry y="26" width="160" height="44" as="geometry" />
        </mxCell>
        <mxCell id="SHPZ-tNXyQGEDy9vbJjf-7" value="" style="line;strokeWidth=1;fillColor=none;align=left;verticalAlign=middle;spacingTop=-1;spacingLeft=3;spacingRight=3;rotatable=0;labelPosition=right;points=[];portConstraint=eastwest;strokeColor=inherit;" vertex="1" parent="SHPZ-tNXyQGEDy9vbJjf-5">
          <mxGeometry y="70" width="160" height="8" as="geometry" />
        </mxCell>
        <mxCell id="SHPZ-tNXyQGEDy9vbJjf-8" value="- getNumeroDeSerie(): String&lt;br&gt;- getTipoDeProduto() : String&lt;br&gt;- getValorDoProduto() ; String&lt;br&gt;- getNome() : String&lt;br&gt;- getIdade(): String" style="text;strokeColor=none;fillColor=none;align=left;verticalAlign=top;spacingLeft=4;spacingRight=4;overflow=hidden;rotatable=0;points=[[0,0.5],[1,0.5]];portConstraint=eastwest;whiteSpace=wrap;html=1;" vertex="1" parent="SHPZ-tNXyQGEDy9vbJjf-5">
          <mxGeometry y="78" width="160" height="142" as="geometry" />
        </mxCell>
        <mxCell id="SHPZ-tNXyQGEDy9vbJjf-10" value="Cliente" style="swimlane;fontStyle=1;align=center;verticalAlign=top;childLayout=stackLayout;horizontal=1;startSize=26;horizontalStack=0;resizeParent=1;resizeParentMax=0;resizeLast=0;collapsible=1;marginBottom=0;whiteSpace=wrap;html=1;" vertex="1" parent="1">
          <mxGeometry x="70" y="415" width="160" height="170" as="geometry" />
        </mxCell>
        <mxCell id="SHPZ-tNXyQGEDy9vbJjf-11" value="- nome : String&lt;br&gt;+ idade : String" style="text;strokeColor=none;fillColor=none;align=left;verticalAlign=top;spacingLeft=4;spacingRight=4;overflow=hidden;rotatable=0;points=[[0,0.5],[1,0.5]];portConstraint=eastwest;whiteSpace=wrap;html=1;" vertex="1" parent="SHPZ-tNXyQGEDy9vbJjf-10">
          <mxGeometry y="26" width="160" height="54" as="geometry" />
        </mxCell>
        <mxCell id="SHPZ-tNXyQGEDy9vbJjf-12" value="" style="line;strokeWidth=1;fillColor=none;align=left;verticalAlign=middle;spacingTop=-1;spacingLeft=3;spacingRight=3;rotatable=0;labelPosition=right;points=[];portConstraint=eastwest;strokeColor=inherit;" vertex="1" parent="SHPZ-tNXyQGEDy9vbJjf-10">
          <mxGeometry y="80" width="160" height="8" as="geometry" />
        </mxCell>
        <mxCell id="SHPZ-tNXyQGEDy9vbJjf-13" value="- getNome(): String&lt;br&gt;- getIdade() : String&lt;br&gt;- setNome() : void&lt;br&gt;- setIdade() : void" style="text;strokeColor=none;fillColor=none;align=left;verticalAlign=top;spacingLeft=4;spacingRight=4;overflow=hidden;rotatable=0;points=[[0,0.5],[1,0.5]];portConstraint=eastwest;whiteSpace=wrap;html=1;" vertex="1" parent="SHPZ-tNXyQGEDy9vbJjf-10">
          <mxGeometry y="88" width="160" height="82" as="geometry" />
        </mxCell>
        <mxCell id="SHPZ-tNXyQGEDy9vbJjf-19" value="Produto" style="swimlane;fontStyle=1;align=center;verticalAlign=top;childLayout=stackLayout;horizontal=1;startSize=26;horizontalStack=0;resizeParent=1;resizeParentMax=0;resizeLast=0;collapsible=1;marginBottom=0;whiteSpace=wrap;html=1;" vertex="1" parent="1">
          <mxGeometry x="414" y="190" width="190" height="180" as="geometry" />
        </mxCell>
        <mxCell id="SHPZ-tNXyQGEDy9vbJjf-20" value="+ NumeroDeSerie: BigDecimal&lt;br&gt;+ TipoDeProduto : String&lt;br&gt;+ ValorDoProduto: BigDecimal" style="text;strokeColor=none;fillColor=none;align=left;verticalAlign=top;spacingLeft=4;spacingRight=4;overflow=hidden;rotatable=0;points=[[0,0.5],[1,0.5]];portConstraint=eastwest;whiteSpace=wrap;html=1;" vertex="1" parent="SHPZ-tNXyQGEDy9vbJjf-19">
          <mxGeometry y="26" width="190" height="64" as="geometry" />
        </mxCell>
        <mxCell id="SHPZ-tNXyQGEDy9vbJjf-21" value="" style="line;strokeWidth=1;fillColor=none;align=left;verticalAlign=middle;spacingTop=-1;spacingLeft=3;spacingRight=3;rotatable=0;labelPosition=right;points=[];portConstraint=eastwest;strokeColor=inherit;" vertex="1" parent="SHPZ-tNXyQGEDy9vbJjf-19">
          <mxGeometry y="90" width="190" height="8" as="geometry" />
        </mxCell>
        <mxCell id="SHPZ-tNXyQGEDy9vbJjf-22" value="- getNumeroDeSerie(): BigDecimal&lt;br&gt;- getTipoDeProduto (): String&lt;br&gt;- getValorDoProduto() : BigDecimal" style="text;strokeColor=none;fillColor=none;align=left;verticalAlign=top;spacingLeft=4;spacingRight=4;overflow=hidden;rotatable=0;points=[[0,0.5],[1,0.5]];portConstraint=eastwest;whiteSpace=wrap;html=1;" vertex="1" parent="SHPZ-tNXyQGEDy9vbJjf-19">
          <mxGeometry y="98" width="190" height="82" as="geometry" />
        </mxCell>
        <mxCell id="SHPZ-tNXyQGEDy9vbJjf-29" value="Carrinho&lt;br&gt;" style="swimlane;fontStyle=1;align=center;verticalAlign=top;childLayout=stackLayout;horizontal=1;startSize=26;horizontalStack=0;resizeParent=1;resizeParentMax=0;resizeLast=0;collapsible=1;marginBottom=0;whiteSpace=wrap;html=1;" vertex="1" parent="1">
          <mxGeometry x="350" y="440" width="200" height="210" as="geometry" />
        </mxCell>
        <mxCell id="SHPZ-tNXyQGEDy9vbJjf-30" value="+ Produto : String&lt;br&gt;+ Valor : BigDecimal&lt;br&gt;+ quantidadeProduto : BigDecimal" style="text;strokeColor=none;fillColor=none;align=left;verticalAlign=top;spacingLeft=4;spacingRight=4;overflow=hidden;rotatable=0;points=[[0,0.5],[1,0.5]];portConstraint=eastwest;whiteSpace=wrap;html=1;" vertex="1" parent="SHPZ-tNXyQGEDy9vbJjf-29">
          <mxGeometry y="26" width="200" height="84" as="geometry" />
        </mxCell>
        <mxCell id="SHPZ-tNXyQGEDy9vbJjf-31" value="" style="line;strokeWidth=1;fillColor=none;align=left;verticalAlign=middle;spacingTop=-1;spacingLeft=3;spacingRight=3;rotatable=0;labelPosition=right;points=[];portConstraint=eastwest;strokeColor=inherit;" vertex="1" parent="SHPZ-tNXyQGEDy9vbJjf-29">
          <mxGeometry y="110" width="200" height="8" as="geometry" />
        </mxCell>
        <mxCell id="SHPZ-tNXyQGEDy9vbJjf-32" value="- AdicionarItemNoCarrinho() : void&lt;br&gt;- RemoverItemNoCarrinho() : void&lt;br&gt;- ListarItemsDoCarrinho() : void&lt;br&gt;- ValorDosItemsNoCarrinho() : void" style="text;strokeColor=none;fillColor=none;align=left;verticalAlign=top;spacingLeft=4;spacingRight=4;overflow=hidden;rotatable=0;points=[[0,0.5],[1,0.5]];portConstraint=eastwest;whiteSpace=wrap;html=1;" vertex="1" parent="SHPZ-tNXyQGEDy9vbJjf-29">
          <mxGeometry y="118" width="200" height="92" as="geometry" />
        </mxCell>
        <mxCell id="SHPZ-tNXyQGEDy9vbJjf-33" value="1" style="endArrow=open;html=1;endSize=12;startArrow=diamondThin;startSize=14;startFill=1;edgeStyle=orthogonalEdgeStyle;align=left;verticalAlign=bottom;rounded=0;entryX=0;entryY=0;entryDx=0;entryDy=0;exitX=1.013;exitY=1.021;exitDx=0;exitDy=0;exitPerimeter=0;" edge="1" parent="1" source="SHPZ-tNXyQGEDy9vbJjf-8" target="SHPZ-tNXyQGEDy9vbJjf-29">
          <mxGeometry x="-1" y="3" relative="1" as="geometry">
            <mxPoint x="240" y="310" as="sourcePoint" />
            <mxPoint x="360" y="350" as="targetPoint" />
            <Array as="points">
              <mxPoint x="242" y="310" />
              <mxPoint x="270" y="310" />
              <mxPoint x="270" y="330" />
              <mxPoint x="350" y="330" />
            </Array>
          </mxGeometry>
        </mxCell>
        <mxCell id="SHPZ-tNXyQGEDy9vbJjf-34" value="1" style="endArrow=open;html=1;endSize=12;startArrow=diamondThin;startSize=14;startFill=1;edgeStyle=orthogonalEdgeStyle;align=left;verticalAlign=bottom;rounded=0;exitX=1;exitY=0.5;exitDx=0;exitDy=0;" edge="1" parent="1" source="SHPZ-tNXyQGEDy9vbJjf-8">
          <mxGeometry x="-1" y="3" relative="1" as="geometry">
            <mxPoint x="250" y="200" as="sourcePoint" />
            <mxPoint x="410" y="200" as="targetPoint" />
          </mxGeometry>
        </mxCell>
        <mxCell id="SHPZ-tNXyQGEDy9vbJjf-37" value="1" style="endArrow=open;html=1;endSize=12;startArrow=diamondThin;startSize=14;startFill=0;edgeStyle=orthogonalEdgeStyle;align=left;verticalAlign=bottom;rounded=0;exitX=1.006;exitY=0.296;exitDx=0;exitDy=0;exitPerimeter=0;entryX=0;entryY=0.993;entryDx=0;entryDy=0;entryPerimeter=0;" edge="1" parent="1" source="SHPZ-tNXyQGEDy9vbJjf-11" target="SHPZ-tNXyQGEDy9vbJjf-8">
          <mxGeometry x="-1" y="3" relative="1" as="geometry">
            <mxPoint x="80" y="350" as="sourcePoint" />
            <mxPoint x="240" y="350" as="targetPoint" />
          </mxGeometry>
        </mxCell>
      </root>
    </mxGraphModel>
  </diagram>
</mxfile>
